<?xml version="1.0" encoding="UTF-8"?>
<svg id="Layer_1" data-name="Layer 1" xmlns="http://www.w3.org/2000/svg" viewBox="0 0 627.39 957.96">
  <defs>
    <style>
      .cls-1 {
        fill: none;
        stroke: #8eafbf;
        stroke-miterlimit: 10;
        stroke-width: 2.34px;
      }
    </style>
  </defs>
  <path class="cls-1" d="m346.96,398.28c-5.82,0-11.59.2-17.32.55l-4.47-40.27c83.92-15.36,147.52-88.86,147.52-177.21C472.69,81.84,392.02,1.17,292.52,1.17S112.35,81.84,112.35,181.34s80.67,180.17,180.17,180.17c1.92,0,3.83-.04,5.73-.1l4.48,40.36c-111.23,17.7-200.56,101.08-227.01,209.14l-66.8-19.19-7.48,26.02,69.11,19.86c-1.87,13.04-2.85,26.37-2.85,39.93,0,154.23,125.03,279.25,279.25,279.25s279.25-125.03,279.25-279.25-125.03-279.25-279.25-279.25Z"/>
</svg>