<?xml version="1.0" encoding="UTF-8"?>
<svg xmlns="http://www.w3.org/2000/svg" viewBox="0 0 74.89 653.48">
  <defs>
    <style>
      .cls-1 {
        stroke-width: 3.66px;
      }

      .cls-1, .cls-2, .cls-3, .cls-4 {
        fill: none;
        stroke: #fff;
      }

      .cls-1, .cls-4 {
        stroke-miterlimit: 10;
      }

      .cls-5, .cls-6 {
        fill: #fff;
      }

      .cls-7 {
        fill: #607a83;
      }

      .cls-2 {
        stroke-dasharray: 0 0 7.37 6.57;
      }

      .cls-2, .cls-3 {
        stroke-linecap: square;
        stroke-linejoin: round;
        stroke-width: 2.88px;
      }

      .cls-4 {
        stroke-width: 2.72px;
      }

      .cls-6 {
        font-family: TWKContinental-Regular, 'TWK Continental';
        font-size: 31.13px;
      }
    </style>
  </defs>
  <g id="Layer_1" data-name="Layer 1">
    <g>
      <circle class="cls-5" cx="40.26" cy="507.1" r="10.9"/>
      <circle class="cls-5" cx="52.32" cy="488.11" r="4.51"/>
      <circle class="cls-5" cx="27.33" cy="488.11" r="4.51"/>
      <circle class="cls-5" cx="52.32" cy="527.08" r="4.51"/>
      <circle class="cls-5" cx="62.86" cy="506.23" r="4.51"/>
      <circle class="cls-5" cx="16.2" cy="506.23" r="4.51"/>
      <circle class="cls-5" cx="27.33" cy="527.08" r="4.51"/>
      <line class="cls-1" x1="32.62" y1="495.49" x2="47.89" y2="518.71"/>
      <line class="cls-1" x1="26.36" y1="507.1" x2="54.15" y2="507.1"/>
      <line class="cls-1" x1="32.31" y1="518.5" x2="48.2" y2="495.7"/>
    </g>
    <g>
      <path class="cls-5" d="m32.59,396.69c-.16-.11-.33-.18-.44-.29-1.38-1.38-2.76-2.77-4.14-4.15-.3-.3-.31-.59-.04-.92.48-.56.95-1.12,1.41-1.68.65-.79.86-1.67.45-2.63-.42-.98-1.19-1.46-2.25-1.52-.71-.04-1.42-.14-2.14-.19-.39-.03-.58-.2-.58-.58,0-1.99,0-3.98,0-5.97,0-.38.19-.57.57-.6.71-.06,1.42-.14,2.14-.2,1.03-.09,1.84-.52,2.26-1.51.41-.97.21-1.84-.45-2.63-.46-.55-.91-1.1-1.38-1.64-.31-.36-.31-.66.04-1,1.36-1.35,2.72-2.71,4.06-4.08.32-.33.61-.35.95-.05.55.48,1.12.95,1.67,1.43.79.68,1.68.83,2.64.43.95-.39,1.42-1.15,1.51-2.15.06-.71.12-1.43.17-2.14.03-.46.22-.69.72-.69,1.92.01,3.84.01,5.76,0,.49,0,.69.23.72.69.04.63.11,1.25.14,1.88.05,1.08.45,1.94,1.48,2.39,1.08.47,2.04.2,2.89-.58.47-.44.99-.83,1.47-1.26.34-.31.63-.27.95.05,1.35,1.37,2.7,2.73,4.06,4.08.34.34.34.65.03,1-.47.54-.92,1.09-1.38,1.64-.65.77-.85,1.63-.47,2.58.41,1.01,1.22,1.47,2.28,1.56.71.06,1.42.14,2.14.2.38.03.57.23.57.61,0,1.99,0,3.98,0,5.97,0,.4-.22.55-.59.58-.73.06-1.46.14-2.19.2-1.01.07-1.76.53-2.17,1.47-.41.94-.26,1.81.37,2.6.47.58.95,1.16,1.45,1.72.32.36.28.67-.05,1-1.36,1.35-2.72,2.71-4.06,4.08-.32.33-.61.33-.95.03-.54-.47-1.09-.93-1.63-1.39-.79-.66-1.67-.87-2.63-.48-.98.4-1.48,1.18-1.55,2.23-.05.68-.12,1.36-.16,2.04-.03.49-.24.73-.75.73-1.9,0-3.8,0-5.71,0-.47,0-.71-.21-.74-.68-.04-.68-.11-1.36-.16-2.04-.08-1.07-.55-1.88-1.56-2.28-.98-.4-1.88-.17-2.67.52-.51.45-1.03.89-1.56,1.32-.14.12-.31.2-.5.32Zm10.03-25.84c-6.3,0-10.73,5.18-10.86,10.5-.14,6.13,4.57,11.21,10.84,11.25,5.92.04,10.86-4.87,10.86-10.76,0-6.1-4.82-10.99-10.85-10.99Z"/>
      <path class="cls-5" d="m33.76,381.65c-.1-4.37,3.47-8.65,8.51-8.82,5.1-.17,9.09,3.68,9.23,8.8.13,4.79-3.82,8.89-8.68,9-4.91.11-9.13-3.86-9.06-8.97Z"/>
      <path class="cls-5" d="m19.6,420.28c-.12-.08-.25-.13-.33-.22-1.04-1.04-2.08-2.08-3.12-3.13-.23-.23-.24-.45-.03-.69.36-.42.71-.84,1.07-1.27.49-.59.65-1.26.34-1.98-.32-.74-.9-1.1-1.7-1.14-.54-.03-1.07-.11-1.61-.14-.29-.02-.43-.15-.43-.44,0-1.5,0-3,0-4.49,0-.29.14-.43.43-.46.54-.05,1.07-.1,1.61-.15.78-.07,1.39-.39,1.7-1.14.31-.73.16-1.39-.34-1.98-.35-.41-.69-.83-1.04-1.24-.23-.27-.23-.5.03-.75,1.03-1.02,2.05-2.04,3.06-3.07.24-.24.46-.26.71-.04.41.36.84.72,1.26,1.08.6.51,1.27.62,1.99.33.71-.29,1.07-.86,1.13-1.62.05-.54.09-1.07.13-1.61.02-.35.17-.52.54-.52,1.45,0,2.89,0,4.34,0,.37,0,.52.17.54.52.03.47.08.94.11,1.41.04.81.34,1.46,1.12,1.8.82.35,1.53.15,2.17-.44.36-.33.74-.63,1.11-.95.26-.23.47-.21.71.04,1.01,1.03,2.04,2.05,3.06,3.07.26.25.26.49.03.75-.35.41-.69.82-1.04,1.24-.49.58-.64,1.23-.35,1.94.31.76.92,1.11,1.72,1.18.54.04,1.07.1,1.61.15.29.02.43.17.43.46,0,1.5,0,3,0,4.49,0,.3-.17.41-.44.44-.55.04-1.1.11-1.65.15-.76.06-1.32.4-1.64,1.11-.31.71-.2,1.36.28,1.95.35.44.72.87,1.09,1.3.24.27.21.51-.04.75-1.02,1.02-2.05,2.04-3.06,3.07-.24.25-.46.25-.71.02-.4-.36-.82-.7-1.23-1.05-.59-.5-1.26-.66-1.98-.36-.74.3-1.11.89-1.17,1.68-.03.51-.09,1.02-.12,1.53-.02.37-.18.55-.56.55-1.43,0-2.86,0-4.3,0-.36,0-.53-.15-.56-.51-.03-.51-.08-1.02-.12-1.53-.06-.8-.42-1.41-1.18-1.72-.74-.3-1.42-.13-2.01.39-.39.34-.78.67-1.17,1-.11.09-.24.15-.37.24Zm7.56-19.46c-4.74,0-8.08,3.9-8.18,7.9-.11,4.62,3.44,8.44,8.16,8.47,4.46.03,8.18-3.67,8.18-8.1,0-4.59-3.63-8.28-8.17-8.28Z"/>
      <path class="cls-5" d="m21.13,408.97c-.07-2.97,2.36-5.88,5.78-5.99,3.46-.12,6.17,2.5,6.27,5.98.09,3.25-2.59,6.04-5.89,6.11-3.34.08-6.2-2.62-6.15-6.1Z"/>
      <path class="cls-5" d="m48.76,417.43c-.1-.03-.2-.05-.28-.09-.93-.53-1.86-1.06-2.79-1.6-.2-.12-.25-.27-.15-.48.17-.36.34-.73.5-1.1.23-.51.22-1.01-.14-1.46-.37-.46-.84-.6-1.41-.48-.38.08-.77.13-1.16.21-.21.04-.33-.02-.39-.23-.29-1.05-.58-2.11-.86-3.16-.06-.2.02-.33.21-.4.37-.14.73-.28,1.1-.41.53-.2.9-.54.98-1.13.08-.57-.16-1-.62-1.33-.32-.22-.64-.45-.97-.67-.22-.14-.26-.31-.13-.53.52-.91,1.05-1.83,1.56-2.75.12-.22.27-.27.5-.16.36.18.73.34,1.09.51.52.25,1.01.19,1.46-.15.44-.34.58-.81.49-1.36-.07-.39-.14-.77-.22-1.16-.05-.25.02-.4.28-.47,1.02-.27,2.03-.55,3.05-.83.26-.07.4.02.48.26.11.33.24.65.35.97.18.56.52.96,1.13,1.05.64.09,1.11-.19,1.44-.73.19-.3.4-.58.59-.88.14-.21.29-.24.51-.11.91.53,1.82,1.05,2.74,1.57.23.13.27.29.16.52-.17.35-.33.71-.49,1.07-.23.5-.22.99.13,1.43.36.48.86.6,1.43.5.39-.07.77-.13,1.16-.21.21-.04.34.04.39.24.29,1.05.58,2.11.86,3.16.06.21-.04.32-.23.39-.38.14-.75.29-1.13.42-.52.19-.85.54-.94,1.09-.08.56.12.99.57,1.32.33.24.67.48,1.02.7.22.15.25.31.12.54-.52.91-1.04,1.83-1.56,2.75-.12.22-.27.26-.5.15-.35-.17-.71-.34-1.07-.5-.51-.24-1.01-.22-1.46.13-.46.35-.61.84-.5,1.41.07.37.13.73.21,1.1.06.26-.02.42-.29.49-1.01.27-2.01.55-3.02.83-.25.07-.4,0-.49-.25-.12-.35-.25-.7-.38-1.05-.19-.55-.56-.91-1.16-.98-.58-.07-1.02.18-1.34.66-.21.31-.42.62-.63.92-.06.08-.14.15-.22.24Zm1.57-15.13c-3.33.92-4.93,4.3-4.22,7.13.81,3.27,4.04,5.27,7.37,4.38,3.14-.83,5.04-4.15,4.19-7.27-.88-3.23-4.14-5.12-7.33-4.24Z"/>
      <path class="cls-5" d="m48.01,409.09c-.57-1.91.48-4.22,2.68-4.9,2.22-.69,4.44.52,5.11,2.76.63,2.09-.61,4.36-2.73,5-2.14.64-4.48-.6-5.06-2.85Z"/>
    </g>
    <g>
      <g id="nfvT5z">
        <g>
          <path class="cls-5" d="m23.88,296.62h20.93c.02-.22.04-.4.06-.58.15-1.51.27-3.02.45-4.52.12-1,.38-1.16,1.36-1.02,1.1.16,2.2.36,3.31.48,1.48.16,2.95.09,4.38-.38,1.29-.42,1.71-1.13,1.5-2.45-.05-.34-.14-.67-.19-1-.2-1.21,0-2.27,1.11-2.99.33-.22.4-.47.23-.81-.07-.13-.1-.28-.15-.43-.29-.93-.13-1.33.66-1.87.16-.11.29-.39.28-.58-.03-.56-.17-1.12-.21-1.69-.04-.66.29-1.03.94-1.12.21-.03.42-.02.62-.03,1.44-.06,2.02-1.07,1.29-2.33-.28-.49-.65-.93-1.01-1.37-1.01-1.25-2.05-2.48-3.05-3.74-.77-.97-1.02-2.09-.86-3.31.1-.77.22-1.54.28-2.31.18-2.29.11-4.59-.84-6.69-1.69-3.73-4.45-6.47-8.22-8.09-3.52-1.51-7.23-1.67-10.98-1.13-4.09.59-7.81,2.06-11.05,4.66-5.13,4.11-7.26,11.54-5.1,17.76.74,2.14,1.91,4.07,3.02,6.03,1.06,1.87,2.13,3.75,3.04,5.7.78,1.65.88,3.42.34,5.21-.34,1.12-.59,2.27-.87,3.41-.42,1.7-.82,3.41-1.26,5.2Z"/>
          <path class="cls-5" d="m23.88,296.62c.43-1.79.84-3.5,1.26-5.2.28-1.14.54-2.29.87-3.41.54-1.79.44-3.56-.34-5.21-.92-1.95-1.98-3.82-3.04-5.7-1.11-1.96-2.28-3.88-3.02-6.03-2.16-6.22-.03-13.65,5.1-17.76,3.25-2.6,6.96-4.07,11.05-4.66,3.76-.54,7.46-.38,10.98,1.13,3.77,1.61,6.53,4.36,8.22,8.09.96,2.11,1.02,4.41.84,6.69-.06.77-.18,1.54-.28,2.31-.16,1.22.1,2.34.86,3.31,1,1.26,2.04,2.49,3.05,3.74.36.44.73.88,1.01,1.37.72,1.25.14,2.27-1.29,2.33-.21,0-.42,0-.62.03-.65.09-.98.46-.94,1.12.04.56.18,1.12.21,1.69.01.19-.12.47-.28.58-.79.54-.95.94-.66,1.87.05.14.08.29.15.43.17.34.11.59-.23.81-1.1.72-1.3,1.79-1.11,2.99.06.34.14.67.19,1,.21,1.32-.22,2.02-1.5,2.45-1.43.47-2.9.55-4.38.38-1.11-.12-2.21-.32-3.31-.48-.98-.14-1.23.02-1.36,1.02-.19,1.5-.3,3.01-.45,4.52-.02.18-.04.37-.06.58h-20.93Z"/>
        </g>
      </g>
      <path class="cls-7" d="m29.6,266.17c-.06-.04-.12-.07-.16-.11-.51-.51-1.03-1.03-1.54-1.54-.11-.11-.12-.22-.01-.34.18-.21.35-.42.53-.63.24-.29.32-.62.17-.98-.16-.36-.44-.54-.84-.56-.27-.02-.53-.05-.79-.07-.14,0-.21-.07-.21-.22,0-.74,0-1.48,0-2.22,0-.14.07-.21.21-.22.26-.02.53-.05.79-.07.38-.03.68-.19.84-.56.15-.36.08-.68-.17-.98-.17-.2-.34-.41-.51-.61-.12-.13-.11-.25.01-.37.51-.5,1.01-1.01,1.51-1.52.12-.12.23-.13.35-.02.2.18.41.35.62.53.29.25.63.31.98.16.35-.14.53-.43.56-.8.02-.26.05-.53.06-.8.01-.17.08-.26.27-.26.71,0,1.43,0,2.14,0,.18,0,.26.09.27.26.01.23.04.47.05.7.02.4.17.72.55.89.4.17.76.08,1.07-.22.18-.16.37-.31.55-.47.13-.11.23-.1.35.02.5.51,1,1.01,1.51,1.52.13.13.13.24.01.37-.17.2-.34.41-.51.61-.24.29-.32.61-.17.96.15.38.45.55.85.58.26.02.53.05.79.07.14.01.21.09.21.23,0,.74,0,1.48,0,2.22,0,.15-.08.2-.22.22-.27.02-.54.05-.81.07-.38.03-.65.2-.81.55-.15.35-.1.67.14.96.17.22.35.43.54.64.12.14.1.25-.02.37-.51.5-1.01,1.01-1.51,1.52-.12.12-.23.12-.35.01-.2-.18-.4-.35-.61-.52-.29-.25-.62-.32-.98-.18-.36.15-.55.44-.58.83-.02.25-.04.5-.06.76-.01.18-.09.27-.28.27-.71,0-1.41,0-2.12,0-.18,0-.26-.08-.27-.25-.02-.25-.04-.5-.06-.76-.03-.4-.21-.7-.58-.85-.37-.15-.7-.06-.99.19-.19.17-.38.33-.58.49-.05.04-.12.08-.18.12Zm3.73-9.6c-2.34,0-3.99,1.93-4.03,3.9-.05,2.28,1.7,4.17,4.03,4.18,2.2.02,4.04-1.81,4.04-4,0-2.27-1.79-4.08-4.03-4.08Z"/>
      <path class="cls-7" d="m30.03,260.58c-.04-1.62,1.29-3.22,3.16-3.28,1.9-.06,3.38,1.37,3.43,3.27.05,1.78-1.42,3.3-3.23,3.34-1.83.04-3.39-1.44-3.37-3.34Z"/>
      <g>
        <path class="cls-7" d="m49.39,263.27c0-.1-.05-.15-.15-.16-.19-.02-.38-.04-.58-.05-.29-.02-.5-.15-.62-.42-.1-.26-.05-.49.13-.7.12-.15.25-.3.37-.44.08-.1.08-.18,0-.27-.37-.36-.73-.73-1.09-1.1-.09-.09-.16-.1-.26-.01-.13.12-.27.22-.4.34-.23.21-.49.28-.78.16-.28-.12-.38-.35-.4-.64,0-.17-.03-.34-.04-.51,0-.12-.06-.19-.19-.19-.52,0-1.03,0-1.55,0-.13,0-.19.06-.19.19-.01.19-.03.38-.04.58-.02.27-.15.47-.41.58-.26.11-.5.07-.71-.12-.15-.13-.3-.25-.45-.38-.09-.08-.17-.07-.26.01-.36.37-.73.73-1.09,1.1-.09.09-.09.17,0,.27.13.15.25.29.37.44.18.21.23.45.12.71-.11.27-.33.38-.61.41-.19.02-.38.04-.58.05-.1,0-.15.06-.15.16,0,.54,0,1.07,0,1.61,0,.1.05.15.16.16.19.01.38.04.58.05.29.02.49.15.61.41.11.26.06.5-.12.71-.13.15-.25.3-.38.45-.07.09-.07.17,0,.25.37.37.74.75,1.12,1.12.03.03.07.05.12.08.05-.03.1-.05.13-.09.14-.12.28-.24.42-.36.21-.19.45-.25.72-.14.27.11.4.33.42.61.01.18.03.37.04.55,0,.13.07.18.2.18.51,0,1.02,0,1.54,0,.14,0,.19-.06.2-.2.01-.18.03-.37.04-.55.02-.28.15-.49.42-.6.26-.11.5-.05.71.13.15.12.3.25.44.38.09.08.17.08.26,0,.36-.37.73-.73,1.09-1.1.09-.09.1-.17.01-.27-.13-.15-.26-.31-.39-.46-.17-.21-.21-.45-.1-.7s.31-.38.59-.4c.2-.01.39-.04.59-.05.1,0,.16-.05.16-.16,0-.54,0-1.07,0-1.61Zm-4.79,3.73c-1.69-.01-2.96-1.38-2.92-3.03.03-1.43,1.23-2.82,2.92-2.83,1.62,0,2.92,1.32,2.92,2.96,0,1.59-1.33,2.91-2.93,2.9Z"/>
        <path class="cls-7" d="m44.51,261.67c-1.36.05-2.32,1.2-2.29,2.38-.02,1.38,1.12,2.45,2.44,2.42,1.31-.03,2.37-1.13,2.34-2.42-.04-1.38-1.11-2.42-2.49-2.37Z"/>
      </g>
    </g>
  </g>
  <g id="Layer_2" data-name="Layer 2">
    <g>
      <rect class="cls-5" x="15.63" y="34.52" width="45.28" height="6.94"/>
      <rect class="cls-5" x="15.63" y="50.09" width="45.28" height="6.94"/>
      <rect class="cls-5" x="15.63" y="66.14" width="45.28" height="6.94"/>
    </g>
    <g>
      <rect class="cls-5" x="26.28" y="597.53" width="34.63" height="5.31"/>
      <rect class="cls-5" x="26.28" y="609.44" width="34.63" height="5.31"/>
      <rect class="cls-5" x="26.28" y="621.71" width="34.63" height="5.31"/>
      <polygon class="cls-5" points="15.78 599.8 15.78 594.75 20.16 597.28 24.54 599.8 20.16 602.33 15.78 604.86 15.78 599.8"/>
      <polygon class="cls-5" points="15.78 612.13 15.78 607.07 20.16 609.6 24.54 612.13 20.16 614.66 15.78 617.19 15.78 612.13"/>
      <polygon class="cls-5" points="15.78 624.45 15.78 619.39 20.16 621.92 24.54 624.45 20.16 626.98 15.78 629.51 15.78 624.45"/>
    </g>
    <path class="cls-4" d="m58.89,160.19c0,11.03-8.94,19.98-19.98,19.98s-19.98-8.94-19.98-19.98"/>
    <g>
      <path class="cls-3" d="m58.43,154.28c-.66-2.08-1.61-3.98-2.8-5.69"/>
      <path class="cls-2" d="m51.1,143.87c-2.83-2.15-6.17-3.58-9.72-4.11"/>
      <path class="cls-3" d="m38.11,139.53c-2.07.02-4.18.34-6.26,1"/>
    </g>
    <polygon class="cls-5" points="17.53 156.21 22.39 151.35 24.17 157.99 25.95 164.63 19.31 162.85 12.67 161.07 17.53 156.21"/>
    <text class="cls-6" transform="translate(31.59 170.67)"><tspan x="0" y="0">?</tspan></text>
  </g>
</svg>